<mxfile host="app.diagrams.net" modified="2023-04-11T00:30:07.291Z" agent="Mozilla/5.0 (Windows NT 10.0; Win64; x64) AppleWebKit/537.36 (KHTML, like Gecko) Chrome/111.0.0.0 Safari/537.36" version="21.1.5" etag="gwWESGq1NjR8qPPoLw7s" type="github">
  <diagram name="PÃ¡gina-1" id="Ut2HGuQhvOvbvotFv5PN">
    <mxGraphModel>
      <root>
        <mxCell id="0" />
        <mxCell id="1" parent="0" />
      </root>
    </mxGraphModel>
  </diagram>
</mxfile>
